<svg width="59" height="59" viewBox="0 0 59 59" fill="none" xmlns="http://www.w3.org/2000/svg">
<rect y="2" width="59" height="55" rx="15" fill="#F9FAFB"/>
<path d="M24.3111 44.0184C20.9055 44.0184 18.2567 43.1481 16.3647 41.4074C14.4727 39.6668 13.5267 37.0306 13.5267 33.4989V18.098C13.5267 17.8205 13.6024 17.5935 13.7538 17.4169C13.9304 17.2403 14.1574 17.152 14.4349 17.152H17.8783C18.1558 17.152 18.3703 17.2403 18.5216 17.4169C18.6982 17.5935 18.7865 17.8205 18.7865 18.098V33.4989C18.7865 35.517 19.2658 37.0432 20.2244 38.0775C21.183 39.0866 22.5453 39.5911 24.3111 39.5911C26.077 39.5911 27.4266 39.0866 28.36 38.0775C29.3186 37.0432 29.7979 35.517 29.7979 33.4989V18.098C29.7979 17.8205 29.8862 17.5935 30.0628 17.4169C30.2394 17.2403 30.4664 17.152 30.7439 17.152H34.1495C34.427 17.152 34.6414 17.2403 34.7928 17.4169C34.9694 17.5935 35.0577 17.8205 35.0577 18.098V33.4989C35.0577 37.0306 34.1117 39.6668 32.2197 41.4074C30.3529 43.1481 27.7167 44.0184 24.3111 44.0184Z" fill="black"/>
<path d="M40.1241 43.64C39.8718 43.64 39.6574 43.5517 39.4808 43.3751C39.3042 43.1985 39.216 42.9841 39.216 42.7318V18.0602C39.216 17.7827 39.3042 17.5682 39.4808 17.4169C39.6574 17.2403 39.8718 17.152 40.1241 17.152H43.6811C43.9586 17.152 44.173 17.2403 44.3244 17.4169C44.5009 17.5682 44.5892 17.7827 44.5892 18.0602V42.7318C44.5892 42.9841 44.5009 43.1985 44.3244 43.3751C44.173 43.5517 43.9586 43.64 43.6811 43.64H40.1241Z" fill="black"/>
<g filter="url(#filter0_i_37_81)">
<path fill-rule="evenodd" clip-rule="evenodd" d="M6.30755 10.4115C3.44446 13.9002 3.44446 19.0835 3.44446 29.45C3.44446 39.8165 3.44446 44.9998 6.30755 48.4885C6.83169 49.1271 7.41731 49.7128 8.05597 50.2369C11.5447 53.1 16.7279 53.1 27.0945 53.1H32.35C42.7165 53.1 47.8998 53.1 51.3885 50.2369C52.0271 49.7128 52.6128 49.1271 53.1369 48.4885C56 44.9998 56 39.8165 56 29.45C56 19.0835 56 13.9002 53.1369 10.4115C52.6128 9.77285 52.0271 9.18723 51.3885 8.6631C47.8998 5.8 42.7165 5.8 32.35 5.8H27.0945C16.7279 5.8 11.5447 5.8 8.05597 8.6631C7.41731 9.18723 6.83169 9.77285 6.30755 10.4115ZM11.1629 12.9929C8.7 15.4558 8.7 19.4198 8.7 27.3478V31.5522C8.7 39.4802 8.7 43.4442 11.1629 45.9071C13.6258 48.37 17.5898 48.37 25.5178 48.37H33.9267C41.8546 48.37 45.8186 48.37 48.2815 45.9071C50.7444 43.4442 50.7444 39.4802 50.7444 31.5522V27.3478C50.7444 19.4198 50.7444 15.4558 48.2815 12.9929C45.8186 10.53 41.8546 10.53 33.9267 10.53H25.5178C17.5898 10.53 13.6258 10.53 11.1629 12.9929Z" fill="url(#paint0_linear_37_81)"/>
</g>
<defs>
<filter id="filter0_i_37_81" x="3.44446" y="5.8" width="52.5555" height="47.3" filterUnits="userSpaceOnUse" color-interpolation-filters="sRGB">
<feFlood flood-opacity="0" result="BackgroundImageFix"/>
<feBlend mode="normal" in="SourceGraphic" in2="BackgroundImageFix" result="shape"/>
<feColorMatrix in="SourceAlpha" type="matrix" values="0 0 0 0 0 0 0 0 0 0 0 0 0 0 0 0 0 0 127 0" result="hardAlpha"/>
<feOffset/>
<feGaussianBlur stdDeviation="0.525555"/>
<feComposite in2="hardAlpha" operator="arithmetic" k2="-1" k3="1"/>
<feColorMatrix type="matrix" values="0 0 0 0 0 0 0 0 0 0 0 0 0 0 0 0 0 0 0.25 0"/>
<feBlend mode="normal" in2="shape" result="effect1_innerShadow_37_81"/>
</filter>
<linearGradient id="paint0_linear_37_81" x1="44.4378" y1="5.8" x2="21.3684" y2="55.0935" gradientUnits="userSpaceOnUse">
<stop stop-color="#0BC5EA"/>
<stop offset="1" stop-color="#3182CE"/>
</linearGradient>
</defs>
</svg>
