<svg width="30" height="30" viewBox="0 0 30 30" fill="none" xmlns="http://www.w3.org/2000/svg">
<rect width="30" height="30" fill="#E5E7EB"/>
<rect x="4" y="4.74579" width="22" height="20.5085" rx="5.59322" fill="#F9FAFB"/>
<path d="M13.0652 20.4137C11.7953 20.4137 10.8076 20.0891 10.1021 19.4401C9.39663 18.791 9.04388 17.8081 9.04388 16.4911V10.7484C9.04388 10.645 9.0721 10.5603 9.12854 10.4945C9.19439 10.4286 9.27905 10.3957 9.38252 10.3957H10.6665C10.77 10.3957 10.8499 10.4286 10.9064 10.4945C10.9722 10.5603 11.0051 10.645 11.0051 10.7484V16.4911C11.0051 17.2437 11.1839 17.8128 11.5413 18.1984C11.8988 18.5747 12.4067 18.7628 13.0652 18.7628C13.7236 18.7628 14.2269 18.5747 14.5749 18.1984C14.9324 17.8128 15.1111 17.2437 15.1111 16.4911V10.7484C15.1111 10.645 15.144 10.5603 15.2099 10.4945C15.2757 10.4286 15.3604 10.3957 15.4639 10.3957H16.7337C16.8372 10.3957 16.9172 10.4286 16.9736 10.4945C17.0394 10.5603 17.0724 10.645 17.0724 10.7484V16.4911C17.0724 17.8081 16.7196 18.791 16.0141 19.4401C15.3181 20.0891 14.3351 20.4137 13.0652 20.4137Z" fill="black"/>
<path d="M18.9615 20.2726C18.8675 20.2726 18.7875 20.2396 18.7217 20.1738C18.6558 20.108 18.6229 20.028 18.6229 19.9339V10.7343C18.6229 10.6309 18.6558 10.5509 18.7217 10.4945C18.7875 10.4286 18.8675 10.3957 18.9615 10.3957H20.2879C20.3913 10.3957 20.4713 10.4286 20.5277 10.4945C20.5936 10.5509 20.6265 10.6309 20.6265 10.7343V19.9339C20.6265 20.028 20.5936 20.108 20.5277 20.1738C20.4713 20.2396 20.3913 20.2726 20.2879 20.2726H18.9615Z" fill="black"/>
<g filter="url(#filter0_i_1212_311)">
<path fill-rule="evenodd" clip-rule="evenodd" d="M6.35195 7.88227C5.28436 9.18314 5.28436 11.1159 5.28436 14.9814C5.28436 18.8468 5.28436 20.7796 6.35195 22.0804C6.5474 22.3186 6.76577 22.537 7.00391 22.7324C8.30478 23.8 10.2375 23.8 14.103 23.8H16.0627C19.9282 23.8 21.8609 23.8 23.1618 22.7324C23.3999 22.537 23.6183 22.3186 23.8137 22.0804C24.8813 20.7796 24.8813 18.8468 24.8813 14.9814C24.8813 11.1159 24.8813 9.18314 23.8137 7.88227C23.6183 7.64412 23.3999 7.42575 23.1618 7.23031C21.8609 6.16272 19.9282 6.16272 16.0627 6.16272H14.103C10.2375 6.16272 8.30478 6.16272 7.00391 7.23031C6.76577 7.42575 6.5474 7.64412 6.35195 7.88227ZM8.16246 8.84482C7.24409 9.76319 7.24409 11.2413 7.24409 14.1975V15.7652C7.24409 18.7214 7.24409 20.1995 8.16246 21.1179C9.08083 22.0363 10.5589 22.0363 13.5151 22.0363H16.6506C19.6068 22.0363 21.0849 22.0363 22.0033 21.1179C22.9217 20.1995 22.9217 18.7214 22.9217 15.7652V14.1975C22.9217 11.2413 22.9217 9.76319 22.0033 8.84482C21.0849 7.92645 19.6068 7.92645 16.6506 7.92645H13.5151C10.5589 7.92645 9.08083 7.92645 8.16246 8.84482Z" fill="url(#paint0_linear_1212_311)"/>
</g>
<defs>
<filter id="filter0_i_1212_311" x="5.28436" y="6.16272" width="19.597" height="17.6373" filterUnits="userSpaceOnUse" color-interpolation-filters="sRGB">
<feFlood flood-opacity="0" result="BackgroundImageFix"/>
<feBlend mode="normal" in="SourceGraphic" in2="BackgroundImageFix" result="shape"/>
<feColorMatrix in="SourceAlpha" type="matrix" values="0 0 0 0 0 0 0 0 0 0 0 0 0 0 0 0 0 0 127 0" result="hardAlpha"/>
<feOffset/>
<feGaussianBlur stdDeviation="0.19597"/>
<feComposite in2="hardAlpha" operator="arithmetic" k2="-1" k3="1"/>
<feColorMatrix type="matrix" values="0 0 0 0 0 0 0 0 0 0 0 0 0 0 0 0 0 0 0.25 0"/>
<feBlend mode="normal" in2="shape" result="effect1_innerShadow_1212_311"/>
</filter>
<linearGradient id="paint0_linear_1212_311" x1="20.57" y1="6.16272" x2="11.9679" y2="24.5433" gradientUnits="userSpaceOnUse">
<stop stop-color="#0BC5EA"/>
<stop offset="1" stop-color="#3182CE"/>
</linearGradient>
</defs>
</svg>
